<svg viewBox="0 0 200 200" xmlns="http://www.w3.org/2000/svg" width="40" height="40">
  <!-- Outer pink ring -->
  <path d="M 60 40 Q 100 20, 120 60 Q 130 100, 110 140 Q 80 160, 50 150 Q 30 140, 25 110 Q 20 80, 40 50 Q 50 35, 60 40" 
        fill="none" stroke="#E94B9C" stroke-width="18" stroke-linecap="round" stroke-linejoin="round"/>
  
  <!-- Inner teal ring -->
  <path d="M 70 30 Q 110 15, 130 50 Q 145 95, 125 145 Q 95 170, 55 160 Q 35 150, 30 115 Q 25 75, 50 45 Q 60 30, 70 30" 
        fill="none" stroke="#17A697" stroke-width="16" stroke-linecap="round" stroke-linejoin="round"/>
  
  <!-- Center cream ring -->
  <path d="M 80 45 Q 115 35, 135 70 Q 150 110, 130 155 Q 100 175, 60 165 Q 40 155, 35 125 Q 30 85, 55 55 Q 70 40, 80 45" 
        fill="none" stroke="#F5EFE1" stroke-width="14" stroke-linecap="round" stroke-linejoin="round"/>
</svg>